<svg width="24" height="24" viewBox="0 0 24 24" fill="none" xmlns="http://www.w3.org/2000/svg">
<path d="M12.5202 4.27006C12.7172 4.26967 12.9069 4.34483 13.0502 4.48006L20.0502 11.4801C20.3426 11.7729 20.3426 12.2472 20.0502 12.5401L13.0502 19.5401C12.7574 19.8325 12.283 19.8325 11.9902 19.5401C11.8472 19.4008 11.7666 19.2096 11.7666 19.0101C11.7666 18.8105 11.8472 18.6193 11.9902 18.4801L18.4502 12.0001L12.0002 5.55006C11.8572 5.41077 11.7766 5.21965 11.7766 5.02006C11.7766 4.82047 11.8572 4.62935 12.0002 4.49006C12.1357 4.348 12.3239 4.26836 12.5202 4.27006Z" fill="#ABABAB"/>
<path d="M4.47998 11.2501L19.48 11.2501C19.8942 11.2501 20.23 11.5859 20.23 12.0001C20.23 12.4143 19.8942 12.7501 19.48 12.7501L4.47998 12.7501C4.06577 12.7501 3.72998 12.4143 3.72998 12.0001C3.72998 11.5859 4.06577 11.2501 4.47998 11.2501Z" fill="#ABABAB"/>
<path d="M12.5202 4.27006C12.7172 4.26967 12.9069 4.34483 13.0502 4.48006L20.0502 11.4801C20.3426 11.7729 20.3426 12.2472 20.0502 12.5401L13.0502 19.5401C12.7574 19.8325 12.283 19.8325 11.9902 19.5401C11.8472 19.4008 11.7666 19.2096 11.7666 19.0101C11.7666 18.8105 11.8472 18.6193 11.9902 18.4801L18.4502 12.0001L12.0002 5.55006C11.8572 5.41077 11.7766 5.21965 11.7766 5.02006C11.7766 4.82047 11.8572 4.62935 12.0002 4.49006C12.1357 4.348 12.3239 4.26836 12.5202 4.27006Z" fill="#ABABAB"/>
<path d="M4.47998 11.2501L19.48 11.2501C19.8942 11.2501 20.23 11.5859 20.23 12.0001C20.23 12.4143 19.8942 12.7501 19.48 12.7501L4.47998 12.7501C4.06577 12.7501 3.72998 12.4143 3.72998 12.0001C3.72998 11.5859 4.06577 11.2501 4.47998 11.2501Z" fill="#ABABAB"/>
</svg>
